<?xml version="1.0" encoding="utf-8"?>
<!-- Generator: Adobe Illustrator 22.1.0, SVG Export Plug-In . SVG Version: 6.00 Build 0)  -->
<svg version="1.1" id="Layer_1" xmlns="http://www.w3.org/2000/svg" xmlns:xlink="http://www.w3.org/1999/xlink" x="0px" y="0px"
	 viewBox="0 0 19.8 18.8" style="enable-background:new 0 0 19.8 18.8;" xml:space="preserve">
<style type="text/css">
	.st0{fill:#23233B;}
</style>
<g>
	<path class="st0" d="M9.9,18.3c-4.9,0-8.9-4-8.9-8.9c0-4.9,4-8.9,8.9-8.9c4.9,0,8.9,4,8.9,8.9C18.8,14.3,14.8,18.3,9.9,18.3z
		 M9.9,1.6C5.6,1.6,2,5.1,2,9.4c0,4.3,3.5,7.8,7.8,7.8c4.3,0,7.8-3.5,7.8-7.8C17.7,5.1,14.2,1.6,9.9,1.6z"/>
</g>
<path class="st0" d="M10.7,9.4l3.8-3.8c0.2-0.2,0.2-0.6,0-0.8c-0.2-0.2-0.6-0.2-0.8,0L9.9,8.6L6.1,4.9c-0.2-0.2-0.6-0.2-0.8,0
	c-0.2,0.2-0.2,0.6,0,0.8l3.8,3.8l-3.8,3.8c-0.1,0.1-0.2,0.2-0.2,0.4s0.1,0.3,0.2,0.4c0.2,0.2,0.6,0.2,0.8,0l3.8-3.8l3.8,3.8
	c0.1,0.1,0.2,0.2,0.4,0.2s0.3-0.1,0.4-0.2c0.2-0.2,0.2-0.6,0-0.8L10.7,9.4z"/>
</svg>
