<svg xmlns="http://www.w3.org/2000/svg" viewBox="0 0 200 8.28"><defs><style>.cls-1{fill:#fff;}.cls-2{fill:#ffe445;}.cls-3{fill:#21eae0;}.cls-4{fill:#5af273;}.cls-5{fill:#f23ef7;}.cls-6{fill:#f94e77;}.cls-7{fill:#5050ff;}</style></defs><title>desktop_wave_1</title><g id="Layer_2" data-name="Layer 2"><g id="Layer_2-2" data-name="Layer 2"><path class="cls-1" d="M200,8.28V1l-1.15.43a9.58,9.58,0,0,0-6.49-.07l-1.13.41a25.88,25.88,0,0,0-3.86.62c-.54.14-1.09.25-1.65.34l-.57-.1a24.19,24.19,0,0,0-4.26-.38c-.64,0-1.27,0-1.91.08l-2.83-.52a17,17,0,0,0-7.64.33l-2.77.79L159.1,1.66a15.63,15.63,0,0,0-2.92-.5h0a55.9,55.9,0,0,0-17.08.25l-1.31-.19a18.87,18.87,0,0,0-3.36-.16,15.17,15.17,0,0,0-4.47-1,15,15,0,0,0-3.71.81l-.2.06L124.27.68a15.27,15.27,0,0,0-2-.14,13.21,13.21,0,0,0-4.29.69L113.82.59a19.55,19.55,0,0,0-3-.21,19.23,19.23,0,0,0-5.22.7L105,1A12.2,12.2,0,0,0,99.83,1l-4.68,1.1-.29,0L89.5,1.5a14.34,14.34,0,0,0-3.14,0l-.14-.07a11.79,11.79,0,0,0-8-.95l-6.9,1.62-2.44-.59a36.19,36.19,0,0,0-15.3-.3l-2.06.42-1.14.2-.52,0-3.63-.71a24.13,24.13,0,0,0-10.5.28,36.17,36.17,0,0,0-10.08.51l-2.8.54-.26-.08-.34-.11a11.67,11.67,0,0,0-5.55-.44l-.87-.25A41.29,41.29,0,0,0,0,.25v8Z"/><path class="cls-2" d="M16.65,1.81a8.17,8.17,0,0,0-.86.17l-2,.47a11.77,11.77,0,0,1-2.72.32c-.33,0-.66,0-1,0h0a36.91,36.91,0,0,0,5.57.43,36.12,36.12,0,0,0,5.1-.36h0a17.77,17.77,0,0,1-2.51-.53l-1.57-.46h0"/><path class="cls-2" d="M49.81,1.83h0a15.08,15.08,0,0,0-1.66.24h0c.59-.06,1.18-.13,1.77-.22h0l-.11,0"/><path class="cls-2" d="M86.36,1.45c-.28,0-.56.06-.84.1L75.94,3h0a36.52,36.52,0,0,0,5.24.38,35.61,35.61,0,0,0,4-.22l5.29-.59h0a10.69,10.69,0,0,1-4.11-1.15h0"/><path class="cls-2" d="M105.64,1.08c-.35.09-.69.2-1,.32a18.35,18.35,0,0,1-3.6.85h0c.54,0,1.08.11,1.61.2l4.76.7a16.18,16.18,0,0,0,2.41.17,15.82,15.82,0,0,0,4.2-.55h0l-.81-.15-7.54-1.54h0"/><path class="cls-2" d="M134.39,1h0a16.74,16.74,0,0,0-2.12.22l-1.83.31,2,.28a13.53,13.53,0,0,0,2,.15,14,14,0,0,0,2.05-.15h0c-.69-.29-1.41-.56-2.13-.81"/><path class="cls-2" d="M172,1.94a9.79,9.79,0,0,0-3.31.57l-.07,0a9,9,0,0,1-2.14.51h0a23.81,23.81,0,0,0,4.05.34,23.56,23.56,0,0,0,5.18-.57l1-.2h0l-3.09-.53A10,10,0,0,0,172,1.94"/><path class="cls-2" d="M193.19,1.69c-.65,0-1.31,0-2,.07h0l-1,.37a15.28,15.28,0,0,1-3.25.79h0a24.37,24.37,0,0,0,3.08.19A23,23,0,0,0,197.2,2h0l-.55-.07a23.48,23.48,0,0,0-3.46-.24"/><path class="cls-3" d="M18.54,1.66a11.94,11.94,0,0,0-1.89.15h0a11.94,11.94,0,0,1,1.89-.15,11.15,11.15,0,0,1,3.66.6l.34.1.26.09-.32.06c-.58.11-1.16.21-1.74.29A18.54,18.54,0,0,0,23.32,3c.47,0,.94,0,1.4-.06h0a13.79,13.79,0,0,1-1.92-.47h0l-.26-.09-.34-.1a11.15,11.15,0,0,0-3.66-.6m23-1a23.51,23.51,0,0,0-5.88.74h0c-.59.14-1.17.32-1.73.51l-.27.1h0a19,19,0,0,1,2.14.29L38,2.73a18.36,18.36,0,0,0,3.7.37,18.27,18.27,0,0,0,5-.69c.48-.13,1-.25,1.46-.34-1.21.12-2.43.19-3.65.19a35.77,35.77,0,0,1-6-.51c-.92-.16-1.85-.27-2.78-.35A23.51,23.51,0,0,1,41.56.66a23.8,23.8,0,0,1,4.62.45l3.63.72h0l-3.63-.72A23.8,23.8,0,0,0,41.56.66"/><path class="cls-4" d="M18.54,1.66a11.94,11.94,0,0,0-1.89.15l1.57.46a17.77,17.77,0,0,0,2.51.53h0c.58-.08,1.16-.18,1.74-.29l.32-.06-.26-.09-.34-.1a11.15,11.15,0,0,0-3.66-.6"/><path class="cls-4" d="M41.56.66a23.51,23.51,0,0,0-5.88.74c.93.08,1.86.19,2.78.35a35.77,35.77,0,0,0,6,.51c1.22,0,2.44-.07,3.65-.19h0a15.08,15.08,0,0,1,1.66-.24l-3.63-.72A23.8,23.8,0,0,0,41.56.66"/><path class="cls-3" d="M63.72,1a12.75,12.75,0,0,0-1.63.11l-6.69,1L60.58,3a18.75,18.75,0,0,0,3.27.29,19.16,19.16,0,0,0,3.86-.4l1.69-.39h0c-.32-.13-.64-.27-.94-.42A10.75,10.75,0,0,0,63.72,1"/><path class="cls-3" d="M87.74,1.38c-.46,0-.92,0-1.38.07h0c.46,0,.92-.07,1.38-.07a14.72,14.72,0,0,1,1.76.11l5.36.66c-.51,0-1,.08-1.53.13l-2.86.32a9.23,9.23,0,0,0,1,0,12.33,12.33,0,0,0,2.77-.32l.7-.16-.13,0h0L89.5,1.49a14.72,14.72,0,0,0-1.76-.11"/><path class="cls-4" d="M87.74,1.38c-.46,0-.92,0-1.38.07A10.69,10.69,0,0,0,90.47,2.6h0l2.86-.32c.51,0,1-.1,1.53-.13L89.5,1.49a14.72,14.72,0,0,0-1.76-.11"/><path class="cls-3" d="M129.92.05a15.48,15.48,0,0,0-3.71.81l-.2.07a16.13,16.13,0,0,1-4.52.64,17.32,17.32,0,0,1-2.38-.17L118,1.22h0L113.82.58a20.94,20.94,0,0,0-3-.21,19.23,19.23,0,0,0-5.22.71h0a19.23,19.23,0,0,1,5.22-.71,20.94,20.94,0,0,1,3,.21l4.13.64a9.93,9.93,0,0,0-1.46.6,13.6,13.6,0,0,1-2.5,1,27.09,27.09,0,0,0,4.59.39,26.7,26.7,0,0,0,4.47-.37l7.39-1.22L126,.93l.2-.07a15.48,15.48,0,0,1,3.71-.81,15.17,15.17,0,0,1,4.47,1h0a15.17,15.17,0,0,0-4.47-1"/><path class="cls-4" d="M110.86.37a19.23,19.23,0,0,0-5.22.71l7.54,1.54.81.15h0a13.6,13.6,0,0,0,2.5-.95,9.93,9.93,0,0,1,1.46-.6L113.82.58a20.94,20.94,0,0,0-3-.21"/><path class="cls-4" d="M129.92.05a15.48,15.48,0,0,0-3.71.81l-.2.07,4.43.64,1.83-.31A16.74,16.74,0,0,1,134.39,1a15.17,15.17,0,0,0-4.47-1"/><path class="cls-3" d="M173,1.51a16.73,16.73,0,0,0-4.53.62l-2.77.79-.22.06-.46.12h.28A10.32,10.32,0,0,0,166.45,3L166,3l-.26,0,2.77-.79A16.73,16.73,0,0,1,173,1.51a17,17,0,0,1,3.11.29l2.83.52a21.52,21.52,0,0,0-2.28.29l.5.09a25.3,25.3,0,0,0,4.35.38c.59,0,1.17,0,1.75-.06h0a14.81,14.81,0,0,1-1.74-.23L179,2.32h0l-2.83-.52A17,17,0,0,0,173,1.51"/><path class="cls-4" d="M173,1.51a16.73,16.73,0,0,0-4.53.62l-2.77.79L166,3l.45.08h0a9,9,0,0,0,2.14-.51l.07,0A9.79,9.79,0,0,1,172,1.94a10,10,0,0,1,1.64.14l3.09.53h0A21.52,21.52,0,0,1,179,2.32l-2.83-.52A17,17,0,0,0,173,1.51"/><path class="cls-3" d="M195.52.82a9.37,9.37,0,0,0-3.16.54l-1.13.4h0l1.13-.4a9.37,9.37,0,0,1,3.16-.54,9.2,9.2,0,0,1,3.33.6l-.92.34c-.24.09-.48.17-.73.24l2.8.4V2a6.79,6.79,0,0,0-1.15-.56h0a9.2,9.2,0,0,0-3.33-.6"/><path class="cls-4" d="M195.52.82a9.37,9.37,0,0,0-3.16.54l-1.13.4c.65,0,1.31-.07,2-.07a23.48,23.48,0,0,1,3.46.24l.55.07c.25-.07.49-.15.73-.24l.92-.34a9.2,9.2,0,0,0-3.33-.6"/><path class="cls-5" d="M0,.65V3.07L4.08,2.4a11.81,11.81,0,0,1,2-.16,11.5,11.5,0,0,1,2.49.26,13,13,0,0,0,1.52.23c-.59-.09-1.17-.2-1.75-.32L0,.65"/><path class="cls-6" d="M4.53,0A42.82,42.82,0,0,0,0,.24V.65L8.31,2.41c.58.12,1.16.23,1.75.32h0c.33,0,.66,0,1,0a11.77,11.77,0,0,0,2.72-.32l2-.47a8.17,8.17,0,0,1,.86-.17l-.87-.25A40.86,40.86,0,0,0,4.53,0"/><path class="cls-5" d="M32.09,1.94a18.47,18.47,0,0,0-4.34.51h0a16.86,16.86,0,0,1-3,.46,16.24,16.24,0,0,0,2.88.26,16,16,0,0,0,5.17-.85L33.68,2c-.53,0-1.06-.07-1.59-.07"/><path class="cls-7" d="M32.41,1.25a36,36,0,0,0-6.81.65l-2.8.55a13.79,13.79,0,0,0,1.92.47h0a16.86,16.86,0,0,0,3-.46h0a18.47,18.47,0,0,1,4.34-.51c.53,0,1.06,0,1.59.07h0l.27-.1c.56-.19,1.14-.37,1.73-.51Q34,1.25,32.41,1.25"/><path class="cls-5" d="M80.92.12a12.14,12.14,0,0,0-2.75.31l-6.9,1.62-2.44-.59a35.52,35.52,0,0,0-8.32-1,36.14,36.14,0,0,0-7,.67l-2.06.42c-.38.08-.76.14-1.14.2l-.52.05h0l.52-.05-.41.07,1,.19a12.14,12.14,0,0,0,2.34.23A12.76,12.76,0,0,0,55,2.14l.42-.06L55,2a18.75,18.75,0,0,0-3.27-.28c-.47,0-.94,0-1.4.05.38-.06.76-.12,1.14-.2l2.06-.42a36.14,36.14,0,0,1,7-.67,35.52,35.52,0,0,1,8.32,1l2.44.59-1.87.44a12.06,12.06,0,0,0,4.23.75,13.94,13.94,0,0,0,1.93-.15L75.94,3a31.24,31.24,0,0,1-3.09-.6l-1.58-.38L78.17.43A12.14,12.14,0,0,1,80.92.12a11.21,11.21,0,0,1,5.3,1.26l.14.07h0l-.14-.07A11.21,11.21,0,0,0,80.92.12"/><path class="cls-6" d="M50.33,1.78l-.52.05.11,0,.41-.07"/><path class="cls-6" d="M80.92.12a12.14,12.14,0,0,0-2.75.31l-6.9,1.62,1.58.38a31.24,31.24,0,0,0,3.09.6h0l9.58-1.48c.28,0,.56-.08.84-.1l-.14-.07A11.21,11.21,0,0,0,80.92.12"/><path class="cls-7" d="M60.51.49a36.14,36.14,0,0,0-7,.67l-2.06.42c-.38.08-.76.14-1.14.2.46,0,.93-.05,1.4-.05A18.75,18.75,0,0,1,55,2l.4.07,6.69-1A12.75,12.75,0,0,1,63.72,1a10.75,10.75,0,0,1,4.74,1.06c.3.15.62.29.94.42h0l1.87-.44-2.44-.59a35.52,35.52,0,0,0-8.32-1"/><path class="cls-5" d="M102.6.7A12.13,12.13,0,0,0,99.83,1L95.15,2.13l-.29,0h0l.29,0-.16,0,1,.11a19.33,19.33,0,0,0,2.4.15A19.7,19.7,0,0,0,101,2.25a34.37,34.37,0,0,0-3.66-.19c-.73,0-1.47,0-2.2.07L99.83,1A12.13,12.13,0,0,1,102.6.7,12.47,12.47,0,0,1,105,1l.6.13h0L105,1A12.47,12.47,0,0,0,102.6.7"/><path class="cls-6" d="M102.6.7A12.13,12.13,0,0,0,99.83,1L95.15,2.13c.73,0,1.47-.07,2.2-.07a34.37,34.37,0,0,1,3.66.19h0a18.35,18.35,0,0,0,3.6-.85c.34-.12.68-.23,1-.32L105,1A12.47,12.47,0,0,0,102.6.7"/><path class="cls-7" d="M95.15,2.13l-.29,0,.13,0,.16,0"/><path class="cls-7" d="M122.24.53a13.21,13.21,0,0,0-4.29.69l1.16.18a17.32,17.32,0,0,0,2.38.17A16.13,16.13,0,0,0,126,.93L124.27.67a15.27,15.27,0,0,0-2-.14"/><path class="cls-5" d="M159.1,1.65l-.42-.08c-.83-.16-1.66-.3-2.5-.42a16.5,16.5,0,0,1,2.92.5m-13.2.54A17.94,17.94,0,0,1,143.37,2l-4.31-.62a56,56,0,0,1,9.33-.78,57.22,57.22,0,0,1,7.75.53c-.48,0-1,0-1.45,0a17.49,17.49,0,0,0-4.39.55,17.86,17.86,0,0,1-4.4.55M148.39.61a56,56,0,0,0-9.33.78l-1.31-.18A18.4,18.4,0,0,0,135.18,1h0a18.4,18.4,0,0,1,2.57.18l1.31.18-.76.14L137,1.76a4,4,0,0,1-.5.09c.57.22,1.12.46,1.63.68a12.35,12.35,0,0,0,4.92,1,13.07,13.07,0,0,0,2.64-.27l5-1A12.92,12.92,0,0,1,153.34,2a12.57,12.57,0,0,1,4.34.75,12.81,12.81,0,0,0,4.34.75,12.9,12.9,0,0,0,3-.36,9,9,0,0,1-2.74-.45L160,1.9c-.29-.09-.58-.18-.88-.25l6.64,1.27L159.1,1.65a16.5,16.5,0,0,0-2.92-.5h0a57.22,57.22,0,0,0-7.75-.53"/><path class="cls-6" d="M135.18,1h-.79c.72.25,1.44.52,2.13.81h0a4,4,0,0,0,.5-.09l1.28-.23.76-.14-1.31-.18A18.4,18.4,0,0,0,135.18,1"/><path class="cls-6" d="M156.18,1.15c.84.12,1.67.26,2.5.42l.42.08a16.5,16.5,0,0,0-2.92-.5"/><path class="cls-7" d="M148.39.61a56,56,0,0,0-9.33.78l4.31.62a17.94,17.94,0,0,0,2.53.18,17.86,17.86,0,0,0,4.4-.55,17.49,17.49,0,0,1,4.39-.55c.49,0,1,0,1.45,0a57.22,57.22,0,0,0-7.75-.53"/><path class="cls-7" d="M159.1,1.65c.3.07.59.16.88.25l2.34.75a9,9,0,0,0,2.74.45h0l.46-.12.22-.06L159.1,1.65"/><path class="cls-5" d="M191.23,1.76a25.88,25.88,0,0,0-3.86.62c-.54.14-1.09.25-1.65.35l-.57-.11a24.19,24.19,0,0,0-4.26-.38c-.64,0-1.27,0-1.91.08h0c.64,0,1.27-.08,1.91-.08a24.19,24.19,0,0,1,4.26.38l.57.11c-.8.13-1.61.23-2.42.29q.69.06,1.38.06A17.38,17.38,0,0,0,187,2.92c-.41,0-.81-.11-1.22-.19h0c.56-.1,1.11-.21,1.65-.35a25.88,25.88,0,0,1,3.86-.62h0"/><path class="cls-6" d="M191.23,1.76a25.88,25.88,0,0,0-3.86.62c-.54.14-1.09.25-1.65.35h0c.41.08.81.14,1.22.19h0a15.28,15.28,0,0,0,3.25-.79l1-.37"/><path class="cls-7" d="M180.89,2.24c-.64,0-1.27,0-1.91.08l2.58.47A14.81,14.81,0,0,0,183.3,3h0c.81-.06,1.62-.16,2.42-.29l-.57-.11a24.19,24.19,0,0,0-4.26-.38"/><path class="cls-7" d="M200,1l-1.15.43A6.79,6.79,0,0,1,200,2V1"/></g></g></svg>