<svg xmlns="http://www.w3.org/2000/svg" viewBox="0 0 200 15.61"><defs><style>.cls-1{fill:#fff;}.cls-2{fill:#f23ef7;}.cls-3{fill:#ffe445;}.cls-4{fill:#f94e77;}.cls-5{fill:#21eae0;}.cls-6{fill:#5050ff;}.cls-7{fill:#5af273;}</style></defs><title>desktop-wave</title><g id="Layer_2" data-name="Layer 2"><g id="Layer_1-2" data-name="Layer 1"><path class="cls-1" d="M200,15.06V5.15l-.35,0-6.49-1.66a24,24,0,0,0-5.93-.75,23.71,23.71,0,0,0-5.16.56l-2.51.55c-.5.11-1,.21-1.5.28l-.6-.16a14,14,0,0,0-7.39,0,23.84,23.84,0,0,1-3-.76l-6.41-2a23.83,23.83,0,0,0-14.24-.16L141.22,2.6a23.93,23.93,0,0,1-4,.82l-6.47.79c-.21-.07-.42-.16-.63-.25l-.05,0a14.06,14.06,0,0,0-10.56-.29l-1.41.52L117.3,4l-.43-.12a23.81,23.81,0,0,0-12-.3l-2.72.64-7-1.86a25.56,25.56,0,0,0-6.56-.85,25.85,25.85,0,0,0-4.88.46l-4,.78a25.67,25.67,0,0,0-3.53,1H75.6a23.37,23.37,0,0,0-4,.34l-3.29.57a13.25,13.25,0,0,1-2.6-.67l-2-.72a13.93,13.93,0,0,0-4.81-.85,14.1,14.1,0,0,0-3.8.52l-.94.26h0a11,11,0,0,0-1.29-.08h-.21a23.92,23.92,0,0,0-10.41.13L35.72,4.72l-2.19-.45A12.27,12.27,0,0,0,31.12,4h0l-2.88-.46A13.83,13.83,0,0,0,21.88,4L18,5.19A24.07,24.07,0,0,0,7.56,5.13a12.88,12.88,0,0,0-4.12-.67,12.66,12.66,0,0,0-3.23.41L0,4.93V15.61"/><path class="cls-2" d="M183.52,5.57h0l1.89.5a14.41,14.41,0,0,0,3.63.47h0l-3.65-.74a12.91,12.91,0,0,0-1.87-.23h0m-176-.51-.89.21-3.83,1L8,6.89A15,15,0,0,0,9.76,7a13.41,13.41,0,0,0,3.39-.43h0a12.6,12.6,0,0,1-3.51-.76L7.92,5.18l-.36-.12h0m28.16-.41h.05l-.05,0m128.38-1a12.94,12.94,0,0,0-4.07.66l-1,.32h0a14.13,14.13,0,0,0,4.26.66,14.16,14.16,0,0,0,3.77-.51l1.36-.38h0a12.91,12.91,0,0,0-4.34-.75m-26.91,0a12.87,12.87,0,0,0-1.75.12l-4,.55h0a14,14,0,0,0,4.39.71,14.19,14.19,0,0,0,4-.59L141,4.13h0l-1.66-.27a12.43,12.43,0,0,0-2.11-.17m-28.33-.2a12.94,12.94,0,0,0-4.08.65l-1.1.37h0l3.49.92a14.17,14.17,0,0,0,3.6.47,14.12,14.12,0,0,0,4.68-.8h0L115,4.92l-1.33-.53a13.07,13.07,0,0,0-4.77-.9ZM52.7,3h0a12.39,12.39,0,0,0-2.19.2L41.24,4.85a12.75,12.75,0,0,1-2.23.2c-.37,0-.75,0-1.12,0h0l3,.47a13.62,13.62,0,0,0,2.21.17,14.25,14.25,0,0,0,3.79-.51l6.84-1.92h0c-.33-.09-.65-.16-1-.23"/><path class="cls-3" d="M199.65,5.13h0L191.13,6.4a14.41,14.41,0,0,1-2.07.15l.69.14a13.13,13.13,0,0,0,2.58.26c.32,0,.64,0,1,0L200,6.42V5.22l-.35-.09M18,5.12h0L13.89,6.38c-.24.07-.49.14-.73.19.32,0,.64,0,1,0a12.82,12.82,0,0,0,2.39-.23l3.79-.71-2.21-.52-.12,0m17.88-.44.42.09A12.48,12.48,0,0,0,37.88,5l-2-.32m66.27-.58L96.31,5.45a19.91,19.91,0,0,1-2,.37h0a13,13,0,0,0,2.56.25,13.08,13.08,0,0,0,4.05-.64l2.77-.92-1.55-.41Zm16,0h0L115.7,5l-.25.09a13,13,0,0,0,4.28.73,13,13,0,0,0,1.76-.12l9.91-1.35a6.5,6.5,0,0,1-.62-.22h0l-4,.49a23.52,23.52,0,0,1-2.9.18,23.89,23.89,0,0,1-5.75-.71ZM170.07,4h0l-1.61.45a12.89,12.89,0,0,1,1.48.63,13.06,13.06,0,0,0,5.81,1.37,13,13,0,0,0,2.49-.24l2.12-.41a12.64,12.64,0,0,1,2.45-.24l.73,0-5.46-1.46a23.36,23.36,0,0,1-3.63.28A23.83,23.83,0,0,1,170.07,4m-94-.37h0l-.9.3a14.18,14.18,0,0,1-4.64.79,13.85,13.85,0,0,1-2.22-.18h0l-.8.14a23.94,23.94,0,0,1-4,.35c-.56,0-1.11,0-1.67-.06h0l2.52.68a13.12,13.12,0,0,0,3.4.45,13.68,13.68,0,0,0,2.47-.23L79.85,4h0a22.93,22.93,0,0,0-3.77-.37m73.26-1.36a13.91,13.91,0,0,0-4,.59L141,4.13l10,1.65a13.29,13.29,0,0,0,2.09.17,12.91,12.91,0,0,0,4.08-.66L159,4.67l-.07,0-5.3-1.72a13.94,13.94,0,0,0-4.33-.68"/><path class="cls-4" d="M12.64,4.52a24.23,24.23,0,0,0-5.08.54h0l.36.12,1.72.63a12.6,12.6,0,0,0,3.51.76h0c.24-.05.49-.12.73-.19L18,5.12a24.07,24.07,0,0,0-5.33-.6m63-.92a23.38,23.38,0,0,0-4,.35l-3.29.57h0a13.85,13.85,0,0,0,2.22.18,14.18,14.18,0,0,0,4.64-.79l.9-.3H75.6m34.68-.77a23.91,23.91,0,0,0-5.44.63l-2.72.64,1.55.41h0l1.1-.37a13.11,13.11,0,0,1,8.85.25l1.33.53.49.18h0L115.7,5l2.43-.91h0l-.83-.22-.43-.12a24,24,0,0,0-6.59-.93Zm76.95-.12a23.72,23.72,0,0,0-5.16.57l-2.51.55c-.5.11-1,.21-1.5.28h0l5.46,1.46h0a12.91,12.91,0,0,1,1.87.23l3.65.74a14.41,14.41,0,0,0,2.07-.15l8.52-1.27-6.49-1.66a24,24,0,0,0-5.93-.76M47.77,2.47a23.86,23.86,0,0,0-5.49.64L35.72,4.65l.05,0h.08l2,.32h0c.37,0,.75,0,1.12,0a12.75,12.75,0,0,0,2.23-.2L50.5,3.18A12.39,12.39,0,0,1,52.69,3h0a24,24,0,0,0-4.92-.51M153.23,0a24.09,24.09,0,0,0-6.86,1l-5.15,1.52a23.93,23.93,0,0,1-4,.82l-6.47.79h0a6.5,6.5,0,0,0,.62.22h0l4-.55a12.87,12.87,0,0,1,1.75-.12,12.43,12.43,0,0,1,2.11.17l1.66.27h0l4.33-1.29a14.13,14.13,0,0,1,8.37.09L159,4.65l.07,0h0l1-.32a12.91,12.91,0,0,1,8.41.09h0L170.05,4h0a23.84,23.84,0,0,1-3-.76l-6.41-2.05A24.11,24.11,0,0,0,153.23,0"/><path class="cls-5" d="M0,5.89V7l2.84-.72L0,5.89m30.82-2a13.44,13.44,0,0,0-2.36.21L20.3,5.67l.09,0a24.18,24.18,0,0,0,5.47.64,23.89,23.89,0,0,0,5.5-.65l4.35-1-4.59-.73h-.3M85,3.23a12.92,12.92,0,0,0-2.47.24L79.86,4a24.67,24.67,0,0,1,3.41.86,24.4,24.4,0,0,0,7.61,1.24,21.54,21.54,0,0,0,3.4-.26,12.64,12.64,0,0,1-3-1l-.87-.41A13,13,0,0,0,85,3.23M54.2,3.06h0l-.51.15.51.13L57,4.13A24.56,24.56,0,0,0,61.81,5L56.19,3.43a12.24,12.24,0,0,0-2-.37"/><path class="cls-6" d="M3.44,4.39A12.66,12.66,0,0,0,.21,4.8L0,4.86v1l2.84.36,3.83-1,.89-.21a12.88,12.88,0,0,0-4.12-.67m27.68-.46h0l4.59.73h0L33.53,4.2a12.27,12.27,0,0,0-2.41-.27M52.9,3h-.2c.33.07.65.14,1,.23h0l.51-.15h0A11,11,0,0,0,52.9,3"/><path class="cls-7" d="M173.82,3.47a14,14,0,0,0-3.75.51,23.83,23.83,0,0,0,4.36.41,23.36,23.36,0,0,0,3.63-.28l-.6-.16a14.05,14.05,0,0,0-3.64-.48M26,3.29a13.79,13.79,0,0,0-4.13.63L18,5.12l.12,0,2.21.52,8.16-1.53a13.44,13.44,0,0,1,2.36-.21h.29l-2.88-.46A13.85,13.85,0,0,0,26,3.29m98.45-.6a13.93,13.93,0,0,0-4.92.89l-1.41.52a23.89,23.89,0,0,0,5.75.71,23.52,23.52,0,0,0,2.9-.18l4-.49c-.21-.07-.42-.16-.63-.25l-.05,0a14,14,0,0,0-5.64-1.18ZM58.94,2.28a14.1,14.1,0,0,0-3.8.52l-.94.26a12.24,12.24,0,0,1,2,.37L61.81,5h0c.56,0,1.11.06,1.67.06a23.94,23.94,0,0,0,4-.35l.8-.14a13.25,13.25,0,0,1-2.6-.67l-2-.72a13.93,13.93,0,0,0-4.81-.85m29.59-.9a25.86,25.86,0,0,0-4.88.47l-4,.78a25.67,25.67,0,0,0-3.53,1A22.93,22.93,0,0,1,79.85,4h0l2.62-.51a13,13,0,0,1,8,1l.87.41a12.64,12.64,0,0,0,3,1h0a19.91,19.91,0,0,0,2-.37l5.81-1.35-7-1.86a25.57,25.57,0,0,0-6.56-.86M200,5.08l-.35,0,.35.09"/></g></g></svg>