<svg id="Layer_1" data-name="Layer 1" xmlns="http://www.w3.org/2000/svg" viewBox="0 0 186 186"><defs><style>.cls-1{fill:#24233b;}.cls-2{fill:#fff;}</style></defs><title>logo</title><circle class="cls-1" cx="93" cy="93" r="93"/><path class="cls-2" d="M156.83,84.5h-5.16a15.5,15.5,0,0,0-15.5,15.5v20.67a5.17,5.17,0,0,1-10.34,0v-62a15.5,15.5,0,0,0-31,0v82.66a5.17,5.17,0,1,1-10.33,0v-62a15.5,15.5,0,1,0-31,0V100a5.17,5.17,0,0,1-5.17,5.17H43.17a5.17,5.17,0,1,0,0,10.33h5.16A15.5,15.5,0,0,0,63.83,100V79.33a5.17,5.17,0,0,1,10.34,0v62a15.5,15.5,0,0,0,31,0V58.67a5.17,5.17,0,1,1,10.33,0v62a15.5,15.5,0,0,0,31,0V100a5.17,5.17,0,0,1,5.17-5.17h5.16a5.17,5.17,0,1,0,0-10.33Z" transform="translate(-7 -7)"/></svg>