<svg xmlns="http://www.w3.org/2000/svg" viewBox="0 0 910.1 87.46"><defs><style>.cls-1{fill:#fff;}.cls-2{fill:#21eae0;}.cls-3{fill:#ffe445;}.cls-4{fill:#5af273;}.cls-5{fill:#f23ef7;}.cls-6{fill:#5050ff;}.cls-7{fill:#f94e77;}</style></defs><title>mobile_wave_2</title><g id="Layer_2" data-name="Layer 2"><g id="Layer_3" data-name="Layer 3"><path class="cls-1" d="M910.1,6.74V87.46H0v-82L66.43,18.76,135.08,12a209.85,209.85,0,0,1,28.77-2,217.5,217.5,0,0,1,48.08,5.41L271.53,29l26.63-4.1c4.19-.68,8.38-1.18,12.61-1.59l39.84-11.65a223.06,223.06,0,0,1,102-5.47L555.76,24.72l69.06-16.8a227.85,227.85,0,0,1,123.43,4.51,227,227,0,0,0,53.58,10.33c7.2-.68,14.39-1,21.63-1,5.42,0,10.84.18,16.25.59,5.1-.5,10.25-1.14,15.35-2Z"/><path class="cls-2" d="M271.53,27.5l-47.4,7.33a223,223,0,0,1-34.78,2.68,230,230,0,0,1-38.65-3.27l-84.27-17-50,5,95.24,27.31a222.85,222.85,0,0,0,51.68,6.06,223.23,223.23,0,0,0,62.6-9l56.68-16.57Zm568.18-6.69c-7.24.68-14.52,1-21.76,1-5.37,0-10.74-.18-16.12-.59-6.14.64-12.24,1.5-18.34,2.69L674.08,44.48l11.52,2.05A220.08,220.08,0,0,0,725,50a223.43,223.43,0,0,0,53.77-6.55l73.39-21.35C848,21.58,843.86,21.12,839.71,20.81Z"/><path class="cls-3" d="M852.14,22.13c6.7.86,13.34,2.09,19.94,3.59l38,4.15V5.24ZM0,17.53v6.33l16.39-1.64Zm367.41,5.78A229.64,229.64,0,0,0,333,20.72c-7.42,0-14.84.36-22.22,1.09l-28.18,8.24,26.32,6A214.55,214.55,0,0,0,357,41.43a215,215,0,0,0,53.77-6.78l11.52-2.92Zm188.35-.09-29.41,7.15-.41.09a213.83,213.83,0,0,1,23.94,7,216.76,216.76,0,0,0,73.21,12.75A214.72,214.72,0,0,0,663,46.53l11.06-2.05Z"/><path class="cls-4" d="M0,3.92V17.53l16.39,4.69,50-5Zm748.25,7A227.85,227.85,0,0,0,624.82,6.42l-69.06,16.8L674.08,44.48,783.49,24c6.1-1.19,12.2-2.05,18.34-2.69A227,227,0,0,1,748.25,10.93ZM855.06,18.8c-5.1.87-10.25,1.51-15.35,2,4.15.31,8.29.77,12.43,1.32l58-16.89Zm-556.9,4.6-26.63,4.1,11.06,2.55,28.18-8.24C306.54,22.22,302.35,22.72,298.16,23.4Z"/><path class="cls-5" d="M476.66,24.78a216.59,216.59,0,0,0-53.77,6.78l-.63.16,15.94,2.44a227.3,227.3,0,0,0,34.43,2.62,227.72,227.72,0,0,0,53.29-6.32,216.67,216.67,0,0,0-49.26-5.68Z"/><path class="cls-6" d="M211.93,13.93a216.92,216.92,0,0,0-48.08-5.42,209.86,209.86,0,0,0-28.77,2L66.43,17.25l84.27,17a230,230,0,0,0,38.65,3.27,223,223,0,0,0,34.78-2.68l47.4-7.33Zm611.53,6.28c-7.24,0-14.43.37-21.63,1.05,5.38.41,10.75.59,16.12.59,7.24,0,14.52-.36,21.76-1C834.3,20.4,828.88,20.21,823.46,20.21Z"/><path class="cls-7" d="M555.76,23.22l-29.41,7.15-.41.09a216.35,216.35,0,0,0-103,1.09l-.64.18-54.86-8.42A229.64,229.64,0,0,0,333,20.72c-7.42,0-14.84.36-22.22,1.09l39.84-11.66a222.82,222.82,0,0,1,102-5.46Z"/></g></g></svg>