<?xml version="1.0" encoding="utf-8"?>
<!-- Generator: Adobe Illustrator 22.1.0, SVG Export Plug-In . SVG Version: 6.00 Build 0)  -->
<svg version="1.1" id="Layer_1" xmlns="http://www.w3.org/2000/svg" xmlns:xlink="http://www.w3.org/1999/xlink" x="0px" y="0px"
	 viewBox="0 0 19.8 18.8" style="enable-background:new 0 0 19.8 18.8;" xml:space="preserve">
<style type="text/css">
	.st0{fill:#23233B;}
</style>
<g>
	<path class="st0" d="M7.7,13.8c1.6,0,3.1-0.6,4.3-1.6l5.8,5.8c0.1,0.1,0.2,0.2,0.4,0.2s0.3-0.1,0.4-0.2c0.2-0.2,0.2-0.6,0-0.8
		l-5.8-5.8c2.2-2.6,2.1-6.5-0.4-9c-1.2-1.3-2.9-1.9-4.7-1.9S4.2,1.2,3,2.4C0.4,5,0.4,9.2,3,11.8C4.2,13.1,5.9,13.8,7.7,13.8z
		 M3.8,3.2c1-1,2.4-1.6,3.9-1.6s2.9,0.6,3.9,1.6c2.2,2.2,2.2,5.7,0,7.8c-1,1-2.4,1.6-3.9,1.6s-2.9-0.6-3.9-1.6
		C1.6,8.9,1.6,5.4,3.8,3.2z"/>
</g>
</svg>
